HIERARCHY
ROOT RightCollar
{
	OFFSET -0.263122 -0.003980 3.801207
	CHANNELS 6 Xposition Yposition Zposition Xrotation Yrotation Zrotation
	JOINT RightShoulder
	{
		OFFSET -1.381779 0.000000 0.000000
		CHANNELS 6 Xposition Yposition Zposition Xrotation Yrotation Zrotation
		JOINT RightElbow
		{
			OFFSET -2.454748 0.000000 0.000000
			CHANNELS 6 Xposition Yposition Zposition Xrotation Yrotation Zrotation
			JOINT RightWrist
			{
				OFFSET -2.035185 -0.001238 0.000000
				CHANNELS 6 Xposition Yposition Zposition Xrotation Yrotation Zrotation
				End Site
				{
					OFFSET -1.535909 0.000000 0.000000
				}
			}
		}
	}
}
MOTION
Frames: 16
Frame Time: 0.041667
-0.263123 -0.003980 3.801207 -1.342821 -9.278635 0.890699 -1.381779 0.000001 -0.000000 17.075067 -79.075675 33.137636 -2.454749 0.000000 -0.000003 -42.943824 -7.315853 13.907672 -2.035187 -0.001237 0.000001 -37.612107 0.950952 -2.599242 
-0.263123 -0.003980 3.801207 -1.058784 -9.017538 1.347151 -1.381778 -0.000002 -0.000002 25.500060 -78.777237 44.867079 -2.454749 -0.000001 -0.000002 -41.111052 -13.482322 20.467666 -2.035185 -0.001238 -0.000001 -40.973400 4.743643 2.712844 
-0.263122 -0.003978 3.801207 -1.143453 -8.674167 1.786489 -1.381781 -0.000001 -0.000002 29.670762 -77.825839 51.063727 -2.454749 -0.000000 -0.000003 -36.262328 -20.826965 28.804106 -2.035185 -0.001237 0.000000 -50.484411 7.772677 9.788435 
-0.263123 -0.003979 3.801205 -1.550325 -8.068766 2.217216 -1.381781 0.000001 0.000001 31.040566 -77.247834 53.976314 -2.454749 -0.000002 -0.000002 -29.254663 -29.988656 38.548703 -2.035185 -0.001239 0.000001 -56.527103 9.465467 17.695579 
-0.263120 -0.003980 3.801207 -1.540863 -7.641860 2.375807 -1.381776 -0.000001 -0.000001 32.819619 -77.046173 57.190697 -2.454750 -0.000000 0.000001 -20.002465 -35.592946 50.499588 -2.035183 -0.001237 -0.000001 -57.451754 10.159975 19.292914 
-0.263123 -0.003982 3.801207 -1.646366 -7.466356 2.678645 -1.381777 -0.000001 0.000001 37.059507 -76.157866 63.104767 -2.454749 -0.000001 0.000002 -10.970908 -37.306852 62.435907 -2.035186 -0.001238 -0.000001 -54.606191 11.093684 19.917837 
-0.263124 -0.003980 3.801206 -1.627698 -7.459392 3.155999 -1.381780 -0.000001 0.000001 42.854612 -74.464717 70.731165 -2.454749 -0.000001 0.000000 -3.135113 -35.930425 72.645551 -2.035185 -0.001237 -0.000001 -49.792503 12.486946 21.549254 
-0.263120 -0.003980 3.801206 -0.664163 -6.707614 3.925136 -1.381781 -0.000003 0.000000 50.345365 -72.102619 79.874582 -2.454750 -0.000001 -0.000001 3.660078 -34.384921 80.645956 -2.035184 -0.001239 0.000000 -42.701526 14.080017 23.198883 
-0.263123 -0.003980 3.801208 -0.141997 -6.395645 4.480620 -1.381781 0.000000 0.000001 52.239486 -69.107895 84.029434 -2.454748 0.000001 -0.000000 9.888940 -33.104735 85.950315 -2.035185 -0.001237 -0.000001 -34.130107 16.211440 23.774649 
-0.263120 -0.003981 3.801208 -0.418400 -5.630146 5.347137 -1.381780 0.000001 -0.000001 52.719481 -66.679729 86.738396 -2.454749 -0.000004 -0.000001 15.613584 -31.687543 89.188118 -2.035183 -0.001237 -0.000002 -25.539464 17.211506 24.826551 
-0.263123 -0.003978 3.801208 -0.740094 -4.983584 5.671975 -1.381780 -0.000001 0.000000 52.858311 -64.994175 88.639729 -2.454749 -0.000001 0.000000 21.026324 -30.411813 92.323769 -2.035183 -0.001237 0.000000 -16.616774 19.301059 25.892330 
-0.263121 -0.003979 3.801206 -0.452734 -4.188301 5.709563 -1.381779 -0.000000 0.000002 54.312322 -64.100219 90.426432 -2.454746 0.000003 -0.000001 25.201136 -29.536805 94.093622 -2.035182 -0.001239 -0.000001 -9.215479 19.551519 27.188034 
-0.263121 -0.003979 3.801207 -0.821983 -4.453055 5.596569 -1.381777 0.000001 0.000001 52.757286 -63.120059 89.800780 -2.454749 0.000001 0.000000 29.587024 -29.141764 95.476298 -2.035184 -0.001238 -0.000000 -3.596667 20.756501 26.734783 
-0.263122 -0.003982 3.801207 -0.634900 -4.433565 5.382422 -1.381779 -0.000003 -0.000001 52.289797 -61.730574 90.489433 -2.454748 0.000001 0.000000 31.256185 -28.153138 95.371113 -2.035184 -0.001236 -0.000002 0.703550 19.947450 26.499146 
-0.263122 -0.003978 3.801207 -0.387737 -4.166068 5.673813 -1.381779 0.000001 0.000000 53.106384 -60.805903 91.795994 -2.454750 -0.000001 0.000000 33.386969 -27.763619 94.575744 -2.035186 -0.001238 0.000000 5.166766 20.923120 25.990594 
-0.263123 -0.003980 3.801207 -0.363057 -4.132046 5.315434 -1.381778 -0.000002 -0.000000 54.855930 -62.299952 92.640410 -2.454747 -0.000001 -0.000001 36.606986 -27.107583 94.197919 -2.035187 -0.001238 0.000002 8.390116 21.085503 26.180767 
